<svg width="18" height="23" viewBox="0 0 18 23" fill="none" xmlns="http://www.w3.org/2000/svg">
<path d="M10.3095 1.6937C9.79402 1.08004 9.3031 0.515475 8.86126 0C8.41942 0.540021 7.9285 1.10459 7.41302 1.6937C4.29562 5.27748 0 10.2604 0 14.1387C0 16.5934 0.981857 18.8026 2.60192 20.3981C4.19744 21.9936 6.40662 23 8.86126 23C11.3159 23 13.5251 22.0181 15.1206 20.3981C16.7161 18.8026 17.7225 16.5688 17.7225 14.1387C17.7225 10.2604 13.4269 5.30203 10.3095 1.6937ZM8.91035 20.9872C7.06937 20.9872 5.37567 20.2263 4.17289 19.0235C2.97012 17.8207 2.20918 16.127 2.20918 14.286C2.18463 13.9424 2.47919 13.6724 2.82284 13.6724C3.16649 13.6724 3.4365 13.9424 3.4365 14.286C3.4365 15.8079 4.05016 17.158 5.03202 18.1644C6.01387 19.1462 7.38847 19.7599 8.91035 19.7599C9.254 19.7599 9.52401 20.0299 9.52401 20.3735C9.52401 20.7172 9.254 20.9872 8.91035 20.9872Z" fill="white"/>
</svg>
