<svg width="31" height="31" viewBox="0 0 31 31" fill="none" xmlns="http://www.w3.org/2000/svg">
<g clip-path="url(#clip0_226_1158)">
<path d="M0.720215 30.3409L2.80719 22.7198C1.51986 20.4893 0.842728 17.9591 0.843674 15.3669C0.846985 7.25764 7.44612 0.660156 15.5551 0.660156C19.4902 0.661812 23.1838 2.19346 25.9614 4.97341C28.7388 7.75336 30.2678 11.4486 30.2664 15.3787C30.2628 23.4877 23.6628 30.0862 15.5551 30.0862C15.5547 30.0862 15.5554 30.0862 15.5551 30.0862H15.5488C13.0867 30.0852 10.6676 29.4677 8.51894 28.2958L0.720215 30.3409ZM8.88009 25.6334L9.32686 25.898C11.2038 27.012 13.3558 27.6012 15.5504 27.6023H15.5551C22.2943 27.6023 27.7795 22.1181 27.7823 15.3778C27.7835 12.1113 26.5129 9.03975 24.2044 6.72927C21.8955 4.41879 18.8259 3.14565 15.5596 3.14423C8.81505 3.14423 3.33012 8.62775 3.32751 15.3678C3.32657 17.6776 3.97272 19.9268 5.1969 21.8733L5.48781 22.3359L4.25227 26.8467L8.88009 25.6334Z" fill="white"/>
<path d="M1.23169 29.8272L3.24653 22.4695C2.00343 20.3163 1.34995 17.8734 1.35065 15.3714C1.35373 7.54284 7.72463 1.17383 15.5524 1.17383C19.3518 1.17548 22.9176 2.65415 25.5985 5.33785C28.2801 8.02154 29.7559 11.5888 29.7545 15.3825C29.7512 23.2112 23.38 29.581 15.5532 29.581C15.5524 29.581 15.5534 29.581 15.5532 29.581H15.5468C13.1701 29.58 10.8345 28.9835 8.76031 27.853L1.23169 29.8272Z" fill="#64B161"/>
<path d="M0.720215 30.3409L2.80719 22.7198C1.51986 20.4893 0.842728 17.9591 0.843674 15.3669C0.846985 7.25764 7.44612 0.660156 15.5551 0.660156C19.4902 0.661812 23.1838 2.19346 25.9614 4.97341C28.7388 7.75336 30.2678 11.4486 30.2664 15.3787C30.2628 23.4877 23.6628 30.0862 15.5551 30.0862C15.5547 30.0862 15.5554 30.0862 15.5551 30.0862H15.5488C13.0867 30.0852 10.6676 29.4677 8.51894 28.2958L0.720215 30.3409ZM8.88009 25.6334L9.32686 25.898C11.2038 27.012 13.3558 27.6012 15.5504 27.6023H15.5551C22.2943 27.6023 27.7795 22.1181 27.7823 15.3778C27.7835 12.1113 26.5129 9.03975 24.2044 6.72927C21.8955 4.41879 18.8259 3.14565 15.5596 3.14423C8.81505 3.14423 3.33012 8.62775 3.32751 15.3678C3.32657 17.6776 3.97272 19.9268 5.1969 21.8733L5.48781 22.3359L4.25227 26.8467L8.88009 25.6334Z" fill="#EAEAEA"/>
<path fill-rule="evenodd" clip-rule="evenodd" d="M11.8784 9.21801C11.6031 8.60592 11.3132 8.59362 11.0511 8.58297C10.8368 8.57375 10.5916 8.57422 10.3468 8.57422C10.1018 8.57422 9.70348 8.66646 9.36669 9.03424C9.02966 9.40201 8.07983 10.2913 8.07983 12.0999C8.07983 13.9087 9.3972 15.6563 9.58097 15.9018C9.76474 16.1471 12.1239 19.9771 15.8601 21.4506C18.9653 22.6753 19.597 22.4317 20.271 22.3704C20.9451 22.3091 22.4458 21.4811 22.752 20.6228C23.0586 19.7645 23.0586 19.029 22.9666 18.875C22.8746 18.722 22.6295 18.63 22.262 18.4462C21.8945 18.2624 20.0873 17.3729 19.7502 17.2504C19.4132 17.1277 19.1682 17.0666 18.9232 17.4346C18.6779 17.8022 17.974 18.63 17.7595 18.875C17.545 19.1207 17.3305 19.1515 16.963 18.9675C16.5954 18.7832 15.4114 18.3954 14.007 17.143C12.9144 16.1688 12.1764 14.9655 11.9619 14.5975C11.7477 14.2299 11.9584 14.0483 12.1235 13.8475C12.4208 13.4859 12.9196 12.8357 13.0421 12.5907C13.1646 12.3452 13.1033 12.1306 13.0116 11.9466C12.9196 11.7629 12.2051 9.94504 11.8784 9.21801Z" fill="white"/>
</g>
<defs>
<clipPath id="clip0_226_1158">
<rect width="31" height="31" fill="white"/>
</clipPath>
</defs>
</svg>
